# xmcd
#
# Track frame offsets:
#	150
#	35616
#	53964
#	92554
#	145411
#	148057
#	197635
#
# Disc length: 2943 seconds
#
# Revision: 1
# Processed by: cddbd v1.5.2PL0 Copyright (c) Steve Scherf et al.
# Submitted via: audiograbber 1.83.01
#
DISCID=660b7d07
DTITLE=Grateful Dead - 77-11-06 Broome County Arena, Binghampton NY
DYEAR=1900
DGENRE=
TTITLE0=St Stephen
TTITLE1=Drums
TTITLE2=Not Fade Away
TTITLE3=Wharf Rat
TTITLE4=St Stephen
TTITLE5=Truckin
TTITLE6=Johnny B Goode
EXTD=
EXTT0=
EXTT1=
EXTT2=
EXTT3=
EXTT4=
EXTT5=
EXTT6=
PLAYORDER=
